<svg xmlns="http://www.w3.org/2000/svg" viewBox="800 0 2100 1910" fill="#FFCC00">
  <path d="M1687 545c-15,-152 -144,-272 -301,-272 -166,0 -301,135 -301,302 0,154 115,280 263,299 -66,69 -118,152 -150,244 -225,-78 -386,-291 -386,-543 0,-317 257,-575 574,-575 308,0 558,241 575,544 1,32 0,57 6,89 28,143 153,244 296,244 167,0 302,-135 302,-302 0,-288 -368,-410 -542,-183 -27,-94 -74,-180 -136,-252 368,-319 951,-59 951,435 0,459 -501,710 -856,501 -210,-122 -459,28 -459,258 0,167 135,302 302,302 217,0 360,-222 278,-418 93,23 192,26 286,8 68,353 -202,683 -564,683 -401,0 -674,-398 -542,-768 50,-140 137,-233 260,-308 99,-60 155,-171 144,-288z" />
</svg>